<svg xmlns="http://www.w3.org/2000/svg" width="1923.016" height="1077.807"><rect width="1903.016" height="1057.807" x="10" y="10" fill="#fff" ry="49.877"/><path fill="none" stroke="#000" stroke-linecap="square" stroke-width="4" d="M964.008 153.904h-20v-80h20M974.008 633.904h50M134.008 663.904h30M754.008 563.904h30M84.008 673.904h10M1424.008 163.904h20M694.008 603.904v-40h10"/><path fill="none" stroke="#000" stroke-linecap="square" stroke-width="3" d="M114.008 1033.904h50v-330"/><path fill="none" stroke="#000" stroke-linecap="square" stroke-width="4" d="M914.008 173.904h50M664.008 643.904v-80h30"/><path fill="none" stroke="#000" stroke-linecap="square" stroke-width="3" d="M164.008 1033.904h1300v-460h-110v-330"/><path fill="none" stroke="#000" stroke-linecap="square" stroke-width="4" d="M1104.008 123.904h40"/><path fill="none" stroke="#000" stroke-linecap="square" stroke-width="3" d="M1464.008 573.904h20"/><path fill="none" stroke="#000" stroke-linecap="square" stroke-width="4" d="M1254.008 203.904h20M1004.008 163.904h60v-30h10M1244.008 333.904v30M664.008 673.904h290M1264.008 313.904h10v-110h80M794.008 133.904h130v40M964.008 93.904h-40v40M914.008 73.904h30v-40h480v170h-10M574.008 693.904h70v-10M764.008 143.904h-20v100h240v250h220v-180h20M994.008 513.904v120M224.008 643.904v-20h-140v30h10M884.008 643.904h70"/><path fill="none" stroke="#000" stroke-linecap="square" stroke-width="4" d="M1004.008 83.904h60v30h10M1134.008 123.904v170h90M1204.008 493.904h530v50h30"/><path fill="none" stroke="#000" stroke-linecap="square" stroke-width="3" d="M714.008 603.904h10"/><path fill="none" stroke="#000" stroke-linecap="square" stroke-width="4" d="M994.008 303.904v-70h-240v-110h10"/><circle cx="574.008" cy="693.904" r="6"/><circle cx="1424.008" cy="203.904" r="6"/><circle cx="694.008" cy="563.904" r="6"/><circle cx="874.008" cy="373.904" r="5"/><circle cx="994.008" cy="513.904" r="6"/><circle cx="874.008" cy="403.904" r="5"/><circle cx="924.008" cy="133.904" r="6"/><circle cx="1464.008" cy="573.904" r="5"/><circle cx="994.008" cy="303.904" r="6"/><circle cx="924.008" cy="173.904" r="6"/><circle cx="944.008" cy="73.904" r="6"/><circle cx="224.008" cy="643.904" r="6"/><circle cx="1204.008" cy="493.904" r="6"/><circle cx="1134.008" cy="123.904" r="6"/><circle cx="994.008" cy="633.904" r="6"/><circle cx="874.008" cy="523.904" r="5"/><circle cx="164.008" cy="1033.904" r="5"/><circle cx="874.008" cy="553.904" r="5"/><circle cx="874.008" cy="313.904" r="5"/><circle cx="1274.008" cy="203.904" r="6"/><circle cx="1424.008" cy="163.904" r="6"/><circle cx="1734.008" cy="543.904" r="6"/><rect width="108" height="38" x="1145.008" y="104.904" fill="#fff099" rx="10" ry="10"/><rect width="108" height="38" x="1145.008" y="104.904" fill="none" stroke="silver" stroke-linecap="square" rx="10" ry="10"/><text x="1256.008" y="130.904" fill="gray" font-family="SansSerif" font-size="16" font-weight="bold">UL</text><text x="1188.008" y="129.904" fill="#404040" font-family="SansSerif" font-size="12">x16</text><circle cx="1144.008" cy="123.904" r="2"/><path fill="none" stroke="#000" stroke-linecap="square" stroke-width="5" d="M1238.008 402.904v-33l5-5"/><text x="1231.008" y="370.904" font-family="SansSerif" font-size="7">0</text><text x="1231.008" y="400.904" font-family="SansSerif" font-size="7">1</text><circle cx="1244.008" cy="363.904" r="2"/><circle cx="1224.008" cy="373.904" r="2"/><circle cx="1224.008" cy="403.904" r="2"/><rect width="108" height="38" x="1145.008" y="184.904" fill="#fff099" rx="10" ry="10"/><rect width="108" height="38" x="1145.008" y="184.904" fill="none" stroke="silver" stroke-linecap="square" rx="10" ry="10"/><text x="1188.008" y="209.904" fill="#404040" font-family="SansSerif" font-size="12">x16</text><circle cx="1254.008" cy="203.904" r="2"/><rect width="108" height="38" x="1445.008" y="144.904" fill="#fff099" rx="10" ry="10"/><rect width="108" height="38" x="1445.008" y="144.904" fill="none" stroke="silver" stroke-linecap="square" rx="10" ry="10"/><text x="1488.008" y="169.904" fill="#404040" font-family="SansSerif" font-size="12">x16</text><circle cx="1444.008" cy="163.904" r="2"/><rect width="108" height="38" x="1765.008" y="524.904" fill="#fff099" rx="10" ry="10"/><rect width="108" height="38" x="1765.008" y="524.904" fill="none" stroke="silver" stroke-linecap="square" rx="10" ry="10"/><text x="1808.008" y="549.904" fill="#404040" font-family="SansSerif" font-size="12">x16</text><circle cx="1764.008" cy="543.904" r="2"/><rect width="108" height="38" x="395.008" y="584.904" fill="#fff099" rx="10" ry="10"/><rect width="108" height="38" x="395.008" y="584.904" fill="none" stroke="silver" stroke-linecap="square" rx="10" ry="10"/><text x="438.008" y="609.904" fill="#404040" font-family="SansSerif" font-size="12">x16</text><circle cx="504.008" cy="603.904" r="2"/><text x="52.008" y="677.904" font-family="Monospaced" font-size="12">0001</text><circle cx="84.008" cy="673.904" r="2"/><path fill="none" stroke="#000" stroke-linecap="square" stroke-width="3" d="M664.008 643.904h-14M664.008 673.904h-14"/><path fill="none" stroke="#000" stroke-linecap="square" stroke-width="5" d="M650.008 644.904v33l-5 5"/><text x="653.008" y="650.904" font-family="SansSerif" font-size="7">15-12</text><text x="653.008" y="680.904" font-family="SansSerif" font-size="7">11-0</text><circle cx="644.008" cy="683.904" r="2"/><circle cx="664.008" cy="643.904" r="2"/><circle cx="664.008" cy="673.904" r="2"/><rect width="68" height="18" x="695.008" y="594.904" fill="#fff099" rx="10" ry="10"/><rect width="68" height="18" x="695.008" y="594.904" fill="none" stroke="silver" stroke-linecap="square" rx="10" ry="10"/><text x="722.008" y="609.904" fill="#404040" font-family="SansSerif" font-size="12">x4</text><circle cx="694.008" cy="603.904" r="2"/><path fill="none" stroke="#000" stroke-linecap="square" stroke-width="3" d="M874.008 343.904h-84M1238.008 373.904h-448M1238.008 403.904h-448M874.008 433.904h-84M874.008 463.904h-84M874.008 493.904h-84M1484.008 553.904h-694"/><path fill="none" stroke="#000" stroke-linecap="square" stroke-width="5" d="M790.008 314.904v243l-5 5"/><text x="793.008" y="320.904" font-family="SansSerif" font-size="7">0</text><text x="793.008" y="350.904" font-family="SansSerif" font-size="7">1</text><text x="793.008" y="380.904" font-family="SansSerif" font-size="7">2</text><text x="793.008" y="410.904" font-family="SansSerif" font-size="7">3</text><text x="793.008" y="440.904" font-family="SansSerif" font-size="7">4</text><text x="793.008" y="470.904" font-family="SansSerif" font-size="7">5</text><text x="793.008" y="500.904" font-family="SansSerif" font-size="7">6</text><text x="793.008" y="530.904" font-family="SansSerif" font-size="7">7</text><text x="793.008" y="560.904" font-family="SansSerif" font-size="7">8</text><circle cx="784.008" cy="563.904" r="2"/><circle cx="804.008" cy="313.904" r="2"/><circle cx="804.008" cy="343.904" r="2"/><circle cx="804.008" cy="373.904" r="2"/><circle cx="804.008" cy="403.904" r="2"/><circle cx="804.008" cy="433.904" r="2"/><circle cx="804.008" cy="463.904" r="2"/><circle cx="804.008" cy="493.904" r="2"/><circle cx="804.008" cy="523.904" r="2"/><circle cx="804.008" cy="553.904" r="2"/><path fill="none" stroke="#000" stroke-linecap="square" stroke-width="2" d="M94.008 1023.904h19M114.008 1023.904v19M114.008 1043.904h-19M94.008 1043.904v-19M98.008 1033.904v-4h6v8h6v-4"/><circle cx="114.008" cy="1033.904" r="2"/><ellipse cx="894.008" cy="313.904" fill="#fff099" rx="19" ry="9"/><ellipse cx="894.008" cy="313.904" fill="none" stroke="silver" rx="19" ry="9"/><text x="799.008" y="307.904" fill="gray" font-family="SansSerif" font-size="16" font-weight="bold">SEL_ULA</text><text x="887.008" y="319.904" fill="#404040" font-family="SansSerif" font-size="12">x1</text><circle cx="874.008" cy="313.904" r="2"/><ellipse cx="894.008" cy="343.904" fill="#fff099" rx="19" ry="9"/><ellipse cx="894.008" cy="343.904" fill="none" stroke="silver" rx="19" ry="9"/><text x="796.008" y="337.904" fill="gray" font-family="SansSerif" font-size="16" font-weight="bold">SEL_OP2</text><text x="887.008" y="349.904" fill="#404040" font-family="SansSerif" font-size="12">x1</text><circle cx="874.008" cy="343.904" r="2"/><ellipse cx="894.008" cy="373.904" fill="#fff099" rx="19" ry="9"/><ellipse cx="894.008" cy="373.904" fill="none" stroke="silver" rx="19" ry="9"/><text x="784.008" y="367.904" fill="gray" font-family="SansSerif" font-size="16" font-weight="bold">SEL_OP1B</text><text x="887.008" y="379.904" fill="#404040" font-family="SansSerif" font-size="12">x1</text><circle cx="874.008" cy="373.904" r="2"/><ellipse cx="894.008" cy="403.904" fill="#fff099" rx="19" ry="9"/><ellipse cx="894.008" cy="403.904" fill="none" stroke="silver" rx="19" ry="9"/><text x="784.008" y="397.904" fill="gray" font-family="SansSerif" font-size="16" font-weight="bold">SEL_OP1A</text><text x="887.008" y="409.904" fill="#404040" font-family="SansSerif" font-size="12">x1</text><circle cx="874.008" cy="403.904" r="2"/><ellipse cx="894.008" cy="433.904" fill="#fff099" rx="19" ry="9"/><ellipse cx="894.008" cy="433.904" fill="none" stroke="silver" rx="19" ry="9"/><text x="798.008" y="427.904" fill="gray" font-family="SansSerif" font-size="16" font-weight="bold">WR_ACC</text><text x="887.008" y="439.904" fill="#404040" font-family="SansSerif" font-size="12">x1</text><circle cx="874.008" cy="433.904" r="2"/><ellipse cx="894.008" cy="463.904" fill="#fff099" rx="19" ry="9"/><ellipse cx="894.008" cy="463.904" fill="none" stroke="silver" rx="19" ry="9"/><text x="799.008" y="457.904" fill="gray" font-family="SansSerif" font-size="16" font-weight="bold">EN_ROM</text><text x="887.008" y="469.904" fill="#404040" font-family="SansSerif" font-size="12">x1</text><circle cx="874.008" cy="463.904" r="2"/><ellipse cx="894.008" cy="493.904" fill="#fff099" rx="19" ry="9"/><ellipse cx="894.008" cy="493.904" fill="none" stroke="silver" rx="19" ry="9"/><text x="817.008" y="487.904" fill="gray" font-family="SansSerif" font-size="16" font-weight="bold">EN_PC</text><text x="887.008" y="499.904" fill="#404040" font-family="SansSerif" font-size="12">x1</text><circle cx="874.008" cy="493.904" r="2"/><ellipse cx="894.008" cy="523.904" fill="#fff099" rx="19" ry="9"/><ellipse cx="894.008" cy="523.904" fill="none" stroke="silver" rx="19" ry="9"/><text x="801.008" y="517.904" fill="gray" font-family="SansSerif" font-size="16" font-weight="bold">EN_RAM</text><text x="887.008" y="529.904" fill="#404040" font-family="SansSerif" font-size="12">x1</text><circle cx="874.008" cy="523.904" r="2"/><ellipse cx="894.008" cy="553.904" fill="#fff099" rx="19" ry="9"/><ellipse cx="894.008" cy="553.904" fill="none" stroke="silver" rx="19" ry="9"/><text x="794.008" y="547.904" fill="gray" font-family="SansSerif" font-size="16" font-weight="bold">WR_RAM</text><text x="887.008" y="559.904" fill="#404040" font-family="SansSerif" font-size="12">x1</text><circle cx="874.008" cy="553.904" r="2"/><path fill="none" stroke="#000" stroke-linecap="square" stroke-width="2" d="M846.008 635.904h37M884.008 635.904v17M884.008 653.904h-37M846.008 653.904v-17"/><text x="857.008" y="649.904" font-family="SansSerif" font-size="12">x4</text><circle cx="884.008" cy="643.904" r="2"/><rect width="108" height="38" x="805.008" y="154.904" fill="#fff099" rx="10" ry="10"/><rect width="108" height="38" x="805.008" y="154.904" fill="none" stroke="silver" stroke-linecap="square" rx="10" ry="10"/><text x="790.008" y="180.904" fill="gray" font-family="SansSerif" font-size="16" font-weight="bold">B</text><text x="848.008" y="179.904" fill="#404040" font-family="SansSerif" font-size="12">x16</text><circle cx="914.008" cy="173.904" r="2"/><rect width="108" height="38" x="805.008" y="54.904" fill="#fff099" rx="10" ry="10"/><rect width="108" height="38" x="805.008" y="54.904" fill="none" stroke="silver" stroke-linecap="square" rx="10" ry="10"/><text x="790.008" y="80.904" fill="gray" font-family="SansSerif" font-size="16" font-weight="bold">A</text><text x="848.008" y="79.904" fill="#404040" font-family="SansSerif" font-size="12">x16</text><circle cx="914.008" cy="73.904" r="2"/><path fill="none" stroke="#000" stroke-linecap="square" stroke-width="3" d="M954.008 643.904h14M954.008 673.904h14"/><path fill="none" stroke="#000" stroke-linecap="square" stroke-width="5" d="M968.008 672.904v-33l5-5"/><text x="946.008" y="640.904" font-family="SansSerif" font-size="7">15-12</text><text x="950.008" y="670.904" font-family="SansSerif" font-size="7">11-0</text><circle cx="974.008" cy="633.904" r="2"/><circle cx="954.008" cy="643.904" r="2"/><circle cx="954.008" cy="673.904" r="2"/><rect width="108" height="38" x="1025.008" y="614.904" fill="#fff099" rx="10" ry="10"/><rect width="108" height="38" x="1025.008" y="614.904" fill="none" stroke="silver" stroke-linecap="square" rx="10" ry="10"/><text x="1136.008" y="640.904" fill="gray" font-family="SansSerif" font-size="16" font-weight="bold">IMED</text><text x="1068.008" y="639.904" fill="#404040" font-family="SansSerif" font-size="12">x16</text><circle cx="1024.008" cy="633.904" r="2"/><path fill="none" stroke="#000" stroke-linecap="square" stroke-width="2" d="M704.008 538.904h49M754.008 538.904v49M754.008 588.904h-49M704.008 588.904v-49"/><text x="712.008" y="562.904" font-family="SansSerif" font-size="16" font-weight="bold">PLA</text><circle cx="704.008" cy="563.904" r="2"/><circle cx="754.008" cy="563.904" r="2"/><path fill="none" stroke="#000" stroke-linecap="square" stroke-width="3" d="M1084.008 139.904v174h-294"/><circle cx="1084.008" cy="135.904" r="3" fill="silver"/><text x="1077.008" y="118.904" fill="gray" font-family="SansSerif" font-size="12">0</text><path fill="none" stroke="#000" stroke-linecap="square" stroke-width="2" d="m1074.008 103.904 30 10v20l-30 10z"/><text x="1076.008" y="129.904" font-family="SansSerif" font-size="12">MUX</text><circle cx="1074.008" cy="113.904" r="2"/><circle cx="1074.008" cy="133.904" r="2"/><circle cx="1084.008" cy="143.904" r="2"/><circle cx="1104.008" cy="123.904" r="2"/><circle cx="1244.008" cy="327.904" r="3" fill="silver"/><text x="1227.008" y="298.904" fill="gray" font-family="SansSerif" font-size="12">0</text><path fill="none" stroke="#000" stroke-linecap="square" stroke-width="2" d="m1224.008 283.904 40 20v20l-40 20z"/><text x="1231.008" y="319.904" font-family="SansSerif" font-size="12">MUX</text><circle cx="1224.008" cy="293.904" r="2"/><circle cx="1224.008" cy="303.904" r="2"/><circle cx="1224.008" cy="313.904" r="2"/><circle cx="1224.008" cy="323.904" r="2"/><circle cx="1244.008" cy="333.904" r="2"/><circle cx="1264.008" cy="313.904" r="2"/><path fill="none" stroke="#000" stroke-linecap="square" stroke-width="3" d="M774.008 149.904v114h160v260h-144"/><circle cx="774.008" cy="145.904" r="3" fill="silver"/><text x="767.008" y="128.904" fill="gray" font-family="SansSerif" font-size="12">0</text><path fill="none" stroke="#000" stroke-linecap="square" stroke-width="2" d="m764.008 113.904 30 10v20l-30 10z"/><text x="766.008" y="139.904" font-family="SansSerif" font-size="12">MUX</text><circle cx="764.008" cy="123.904" r="2"/><circle cx="764.008" cy="143.904" r="2"/><circle cx="774.008" cy="153.904" r="2"/><circle cx="794.008" cy="133.904" r="2"/><path fill="none" stroke="#000" stroke-linecap="square" stroke-width="2" d="M94.008 643.904h39M134.008 643.904v39M134.008 683.904h-39M94.008 683.904v-39"/><circle cx="94.008" cy="653.904" r="2"/><circle cx="94.008" cy="673.904" r="2"/><circle cx="134.008" cy="663.904" r="2"/><circle cx="114.008" cy="643.904" r="2"/><text x="103.008" y="658.904" fill="gray" font-family="SansSerif" font-size="12">c in</text><circle cx="114.008" cy="683.904" r="2"/><text x="98.008" y="680.904" fill="gray" font-family="SansSerif" font-size="12">c out</text><path fill="none" stroke="#000" stroke-linecap="square" stroke-width="2" d="M119.008 663.904h10M124.008 658.904v10M964.008 143.904h39M1004.008 143.904v39M1004.008 183.904h-39M964.008 183.904v-39"/><circle cx="964.008" cy="153.904" r="2"/><circle cx="964.008" cy="173.904" r="2"/><circle cx="1004.008" cy="163.904" r="2"/><circle cx="984.008" cy="143.904" r="2"/><text x="973.008" y="158.904" fill="gray" font-family="SansSerif" font-size="12">b in</text><circle cx="984.008" cy="183.904" r="2"/><text x="968.008" y="180.904" fill="gray" font-family="SansSerif" font-size="12">b out</text><path fill="none" stroke="#000" stroke-linecap="square" stroke-width="2" d="M989.008 163.904h10M964.008 63.904h39M1004.008 63.904v39M1004.008 103.904h-39M964.008 103.904v-39"/><circle cx="964.008" cy="73.904" r="2"/><circle cx="964.008" cy="93.904" r="2"/><circle cx="1004.008" cy="83.904" r="2"/><circle cx="984.008" cy="63.904" r="2"/><text x="973.008" y="78.904" fill="gray" font-family="SansSerif" font-size="12">c in</text><circle cx="984.008" cy="103.904" r="2"/><text x="968.008" y="100.904" fill="gray" font-family="SansSerif" font-size="12">c out</text><path fill="none" stroke="#000" stroke-linecap="square" stroke-width="2" d="M989.008 83.904h10M994.008 78.904v10M174.008 653.904h39M214.008 653.904v59M214.008 713.904h-39M174.008 713.904v-59M214.008 658.904h5v60h-40v-5"/><path fill="none" stroke="#000" stroke-linecap="square" stroke-width="2" d="M219.008 663.904h5v60h-40v-5"/><path fill="none" stroke="#000" stroke-linecap="square" stroke-width="5" d="M164.008 663.904h8M216.008 663.904h8"/><text x="178.008" y="667.904" font-family="SansSerif" font-size="12">D</text><text x="201.008" y="667.904" font-family="SansSerif" font-size="12">Q</text><path fill="none" stroke="#000" stroke-linecap="square" stroke-width="2" d="M194.008 714.904v9"/><text x="190.008" y="707.904" fill="gray" font-family="SansSerif" font-size="12">R</text><text x="177.008" y="687.904" font-family="SansSerif" font-size="12">WE</text><path fill="none" stroke="#000" stroke-linecap="square" stroke-width="2" d="M164.008 683.904h9M175.008 699.904l7 4-7 4M164.008 703.904h9"/><circle cx="164.008" cy="663.904" r="2"/><circle cx="224.008" cy="663.904" r="2"/><circle cx="194.008" cy="723.904" r="2"/><circle cx="164.008" cy="683.904" r="2"/><circle cx="164.008" cy="703.904" r="2"/><path fill="none" stroke="#000" stroke-linecap="square" stroke-width="2" d="M1364.008 193.904h39M1404.008 193.904v59M1404.008 253.904h-39M1364.008 253.904v-59M1404.008 198.904h5v60h-40v-5"/><path fill="none" stroke="#000" stroke-linecap="square" stroke-width="2" d="M1409.008 203.904h5v60h-40v-5"/><path fill="none" stroke="#000" stroke-linecap="square" stroke-width="5" d="M1354.008 203.904h8M1406.008 203.904h8"/><text x="1368.008" y="207.904" font-family="SansSerif" font-size="12">D</text><text x="1391.008" y="207.904" font-family="SansSerif" font-size="12">Q</text><path fill="none" stroke="#000" stroke-linecap="square" stroke-width="2" d="M1384.008 254.904v9"/><text x="1380.008" y="247.904" fill="gray" font-family="SansSerif" font-size="12">R</text><text x="1367.008" y="227.904" font-family="SansSerif" font-size="12">WE</text><path fill="none" stroke="#000" stroke-linecap="square" stroke-width="2" d="M1354.008 223.904h9M1365.008 239.904l7 4-7 4M1354.008 243.904h9"/><text x="1366.008" y="167.904" font-family="SansSerif" font-size="16" font-weight="bold">ACC</text><circle cx="1354.008" cy="203.904" r="2"/><circle cx="1414.008" cy="203.904" r="2"/><circle cx="1384.008" cy="263.904" r="2"/><circle cx="1354.008" cy="223.904" r="2"/><circle cx="1354.008" cy="243.904" r="2"/><path fill="none" stroke="#000" stroke-linecap="square" stroke-width="2" d="M1514.008 593.904v-10h-10v-80h200v80h-10v10"/><text x="1506.008" y="529.904" font-family="SansSerif" font-size="12">0</text><text x="1506.008" y="549.904" font-family="SansSerif" font-size="12">15</text><text x="1534.008" y="539.904" font-family="SansSerif" font-size="12">A</text><path fill="none" stroke="#000" stroke-linecap="square" d="m1524.008 548.904 5-5v-7l3-3-3-3v-7l-5-5M1544.008 533.904h40"/><text x="1560.008" y="529.904" font-family="SansSerif" font-size="12">0</text><text x="1544.008" y="546.904" font-family="SansSerif" font-size="12">65535</text><text x="1517.008" y="578.904" font-family="SansSerif" font-size="12">C1</text><text x="1517.008" y="568.904" font-family="SansSerif" font-size="12">M2 [Output enable]</text><text x="1517.008" y="558.904" font-family="SansSerif" font-size="12">M3 [Write enable]</text><path fill="none" stroke="#000" stroke-linecap="square" stroke-width="2" d="M1504.008 593.904h199M1704.008 593.904v19"/><text x="1677.008" y="608.904" font-family="SansSerif" font-size="9">A,1,2</text><text x="1507.008" y="608.904" font-family="SansSerif" font-size="9">A,1,3</text><path fill="none" stroke="#000" stroke-linecap="square" stroke-width="2" d="M1504.008 594.904v19h199M1505.008 613.904h199v19"/><text x="1677.008" y="628.904" font-family="SansSerif" font-size="9">A,1,2</text><text x="1507.008" y="628.904" font-family="SansSerif" font-size="9">A,1,3</text><path fill="none" stroke="#000" stroke-linecap="square" stroke-width="2" d="M1504.008 614.904v19h199M1505.008 633.904h199v19"/><text x="1677.008" y="648.904" font-family="SansSerif" font-size="9">A,1,2</text><text x="1507.008" y="648.904" font-family="SansSerif" font-size="9">A,1,3</text><path fill="none" stroke="#000" stroke-linecap="square" stroke-width="2" d="M1504.008 634.904v19h199M1505.008 653.904h199v19"/><text x="1677.008" y="668.904" font-family="SansSerif" font-size="9">A,1,2</text><text x="1507.008" y="668.904" font-family="SansSerif" font-size="9">A,1,3</text><path fill="none" stroke="#000" stroke-linecap="square" stroke-width="2" d="M1504.008 654.904v19h199M1505.008 673.904h199v19"/><text x="1677.008" y="688.904" font-family="SansSerif" font-size="9">A,1,2</text><text x="1507.008" y="688.904" font-family="SansSerif" font-size="9">A,1,3</text><path fill="none" stroke="#000" stroke-linecap="square" stroke-width="2" d="M1504.008 674.904v19h199M1505.008 693.904h199v19"/><text x="1677.008" y="708.904" font-family="SansSerif" font-size="9">A,1,2</text><text x="1507.008" y="708.904" font-family="SansSerif" font-size="9">A,1,3</text><path fill="none" stroke="#000" stroke-linecap="square" stroke-width="2" d="M1504.008 694.904v19h199M1505.008 713.904h199v19"/><text x="1677.008" y="728.904" font-family="SansSerif" font-size="9">A,1,2</text><text x="1507.008" y="728.904" font-family="SansSerif" font-size="9">A,1,3</text><path fill="none" stroke="#000" stroke-linecap="square" stroke-width="2" d="M1504.008 714.904v19h199M1505.008 733.904h199v19"/><text x="1677.008" y="748.904" font-family="SansSerif" font-size="9">A,1,2</text><text x="1507.008" y="748.904" font-family="SansSerif" font-size="9">A,1,3</text><path fill="none" stroke="#000" stroke-linecap="square" stroke-width="2" d="M1504.008 734.904v19h199M1505.008 753.904h199v19"/><text x="1677.008" y="768.904" font-family="SansSerif" font-size="9">A,1,2</text><text x="1507.008" y="768.904" font-family="SansSerif" font-size="9">A,1,3</text><path fill="none" stroke="#000" stroke-linecap="square" stroke-width="2" d="M1504.008 754.904v19h199M1505.008 773.904h199v19"/><text x="1677.008" y="788.904" font-family="SansSerif" font-size="9">A,1,2</text><text x="1507.008" y="788.904" font-family="SansSerif" font-size="9">A,1,3</text><path fill="none" stroke="#000" stroke-linecap="square" stroke-width="2" d="M1504.008 774.904v19h199M1505.008 793.904h199v19"/><text x="1677.008" y="808.904" font-family="SansSerif" font-size="9">A,1,2</text><text x="1507.008" y="808.904" font-family="SansSerif" font-size="9">A,1,3</text><path fill="none" stroke="#000" stroke-linecap="square" stroke-width="2" d="M1504.008 794.904v19h199M1505.008 813.904h199v19"/><text x="1677.008" y="828.904" font-family="SansSerif" font-size="9">A,1,2</text><text x="1507.008" y="828.904" font-family="SansSerif" font-size="9">A,1,3</text><path fill="none" stroke="#000" stroke-linecap="square" stroke-width="2" d="M1504.008 814.904v19h199M1505.008 833.904h199v19"/><text x="1677.008" y="848.904" font-family="SansSerif" font-size="9">A,1,2</text><text x="1507.008" y="848.904" font-family="SansSerif" font-size="9">A,1,3</text><path fill="none" stroke="#000" stroke-linecap="square" stroke-width="2" d="M1504.008 834.904v19h199M1505.008 853.904h199v19"/><text x="1677.008" y="868.904" font-family="SansSerif" font-size="9">A,1,2</text><text x="1507.008" y="868.904" font-family="SansSerif" font-size="9">A,1,3</text><path fill="none" stroke="#000" stroke-linecap="square" stroke-width="2" d="M1504.008 854.904v19h199M1505.008 873.904h199v19"/><text x="1677.008" y="888.904" font-family="SansSerif" font-size="9">A,1,2</text><text x="1507.008" y="888.904" font-family="SansSerif" font-size="9">A,1,3</text><path fill="none" stroke="#000" stroke-linecap="square" stroke-width="2" d="M1504.008 874.904v19h199M1505.008 893.904h199v19M1704.008 913.904h-199M1504.008 913.904v-19"/><text x="1677.008" y="908.904" font-family="SansSerif" font-size="9">A,1,2</text><text x="1507.008" y="908.904" font-family="SansSerif" font-size="9">A,1,3</text><path fill="none" stroke="#000" stroke-linecap="square" stroke-width="4" d="M1424.008 203.904v390h60l5 5v300"/><path fill="none" stroke="#000" stroke-linecap="square" stroke-width="2" d="m1489.008 598.904 5 5h10"/><text x="1497.008" y="600.904" font-family="SansSerif" font-size="7">0</text><path fill="none" stroke="#000" stroke-linecap="square" stroke-width="2" d="m1489.008 618.904 5 5h10"/><text x="1497.008" y="620.904" font-family="SansSerif" font-size="7">1</text><path fill="none" stroke="#000" stroke-linecap="square" stroke-width="2" d="m1489.008 638.904 5 5h10"/><text x="1497.008" y="640.904" font-family="SansSerif" font-size="7">2</text><path fill="none" stroke="#000" stroke-linecap="square" stroke-width="2" d="m1489.008 658.904 5 5h10"/><text x="1497.008" y="660.904" font-family="SansSerif" font-size="7">3</text><path fill="none" stroke="#000" stroke-linecap="square" stroke-width="2" d="m1489.008 678.904 5 5h10"/><text x="1497.008" y="680.904" font-family="SansSerif" font-size="7">4</text><path fill="none" stroke="#000" stroke-linecap="square" stroke-width="2" d="m1489.008 698.904 5 5h10"/><text x="1497.008" y="700.904" font-family="SansSerif" font-size="7">5</text><path fill="none" stroke="#000" stroke-linecap="square" stroke-width="2" d="m1489.008 718.904 5 5h10"/><text x="1497.008" y="720.904" font-family="SansSerif" font-size="7">6</text><path fill="none" stroke="#000" stroke-linecap="square" stroke-width="2" d="m1489.008 738.904 5 5h10"/><text x="1497.008" y="740.904" font-family="SansSerif" font-size="7">7</text><path fill="none" stroke="#000" stroke-linecap="square" stroke-width="2" d="m1489.008 758.904 5 5h10"/><text x="1497.008" y="760.904" font-family="SansSerif" font-size="7">8</text><path fill="none" stroke="#000" stroke-linecap="square" stroke-width="2" d="m1489.008 778.904 5 5h10"/><text x="1497.008" y="780.904" font-family="SansSerif" font-size="7">9</text><path fill="none" stroke="#000" stroke-linecap="square" stroke-width="2" d="m1489.008 798.904 5 5h10"/><text x="1493.008" y="800.904" font-family="SansSerif" font-size="7">10</text><path fill="none" stroke="#000" stroke-linecap="square" stroke-width="2" d="m1489.008 818.904 5 5h10"/><text x="1493.008" y="820.904" font-family="SansSerif" font-size="7">11</text><path fill="none" stroke="#000" stroke-linecap="square" stroke-width="2" d="m1489.008 838.904 5 5h10"/><text x="1493.008" y="840.904" font-family="SansSerif" font-size="7">12</text><path fill="none" stroke="#000" stroke-linecap="square" stroke-width="2" d="m1489.008 858.904 5 5h10"/><text x="1493.008" y="860.904" font-family="SansSerif" font-size="7">13</text><path fill="none" stroke="#000" stroke-linecap="square" stroke-width="2" d="m1489.008 878.904 5 5h10"/><text x="1493.008" y="880.904" font-family="SansSerif" font-size="7">14</text><path fill="none" stroke="#000" stroke-linecap="square" stroke-width="2" d="m1489.008 898.904 5 5h10"/><text x="1493.008" y="900.904" font-family="SansSerif" font-size="7">15</text><circle cx="1484.008" cy="593.904" r="2"/><path fill="none" stroke="#000" stroke-linecap="square" stroke-width="4" d="M1734.008 543.904v50h-10l-5 5v300"/><path fill="none" stroke="#000" stroke-linecap="square" stroke-width="2" d="m1719.008 598.904-5 5h-10"/><text x="1707.008" y="600.904" font-family="SansSerif" font-size="7">0</text><path fill="none" stroke="#000" stroke-linecap="square" stroke-width="2" d="m1719.008 618.904-5 5h-10"/><text x="1707.008" y="620.904" font-family="SansSerif" font-size="7">1</text><path fill="none" stroke="#000" stroke-linecap="square" stroke-width="2" d="m1719.008 638.904-5 5h-10"/><text x="1707.008" y="640.904" font-family="SansSerif" font-size="7">2</text><path fill="none" stroke="#000" stroke-linecap="square" stroke-width="2" d="m1719.008 658.904-5 5h-10"/><text x="1707.008" y="660.904" font-family="SansSerif" font-size="7">3</text><path fill="none" stroke="#000" stroke-linecap="square" stroke-width="2" d="m1719.008 678.904-5 5h-10"/><text x="1707.008" y="680.904" font-family="SansSerif" font-size="7">4</text><path fill="none" stroke="#000" stroke-linecap="square" stroke-width="2" d="m1719.008 698.904-5 5h-10"/><text x="1707.008" y="700.904" font-family="SansSerif" font-size="7">5</text><path fill="none" stroke="#000" stroke-linecap="square" stroke-width="2" d="m1719.008 718.904-5 5h-10"/><text x="1707.008" y="720.904" font-family="SansSerif" font-size="7">6</text><path fill="none" stroke="#000" stroke-linecap="square" stroke-width="2" d="m1719.008 738.904-5 5h-10"/><text x="1707.008" y="740.904" font-family="SansSerif" font-size="7">7</text><path fill="none" stroke="#000" stroke-linecap="square" stroke-width="2" d="m1719.008 758.904-5 5h-10"/><text x="1707.008" y="760.904" font-family="SansSerif" font-size="7">8</text><path fill="none" stroke="#000" stroke-linecap="square" stroke-width="2" d="m1719.008 778.904-5 5h-10"/><text x="1707.008" y="780.904" font-family="SansSerif" font-size="7">9</text><path fill="none" stroke="#000" stroke-linecap="square" stroke-width="2" d="m1719.008 798.904-5 5h-10"/><text x="1707.008" y="800.904" font-family="SansSerif" font-size="7">10</text><path fill="none" stroke="#000" stroke-linecap="square" stroke-width="2" d="m1719.008 818.904-5 5h-10"/><text x="1707.008" y="820.904" font-family="SansSerif" font-size="7">11</text><path fill="none" stroke="#000" stroke-linecap="square" stroke-width="2" d="m1719.008 838.904-5 5h-10"/><text x="1707.008" y="840.904" font-family="SansSerif" font-size="7">12</text><path fill="none" stroke="#000" stroke-linecap="square" stroke-width="2" d="m1719.008 858.904-5 5h-10"/><text x="1707.008" y="860.904" font-family="SansSerif" font-size="7">13</text><path fill="none" stroke="#000" stroke-linecap="square" stroke-width="2" d="m1719.008 878.904-5 5h-10"/><text x="1707.008" y="880.904" font-family="SansSerif" font-size="7">14</text><path fill="none" stroke="#000" stroke-linecap="square" stroke-width="2" d="m1719.008 898.904-5 5h-10"/><text x="1707.008" y="900.904" font-family="SansSerif" font-size="7">15</text><circle cx="1724.008" cy="593.904" r="2"/><path fill="none" stroke="#000" stroke-linecap="square" stroke-width="4" d="M1224.008 303.904h-230v210h490l5 5v20"/><path fill="none" stroke="#000" stroke-linecap="square" stroke-width="2" d="m1489.008 518.904 5 5h10M1499.008 526.904v2M1499.008 532.904v2M1499.008 538.904v2M1489.008 538.904l5 5h10"/><circle cx="1484.008" cy="513.904" r="2"/><path fill="none" stroke="#000" stroke-linecap="square" stroke-width="2" d="M1484.008 563.904h20"/><circle cx="1484.008" cy="563.904" r="2"/><path fill="none" stroke="#000" stroke-linecap="square" stroke-width="2" d="M1484.008 553.904h20"/><circle cx="1484.008" cy="553.904" r="2"/><path fill="none" stroke="#000" stroke-linecap="square" stroke-width="2" d="M1484.008 573.904h20M1505.008 569.904l7 4-7 4"/><circle cx="1484.008" cy="573.904" r="2"/><text x="1563.008" y="515.904" font-family="SansSerif" font-size="12">RAM 64K x 16</text><path fill="none" stroke="#000" stroke-linecap="square" stroke-width="2" d="M304.008 693.904v-10h-10v-50h200v50h-10v10"/><text x="296.008" y="659.904" font-family="SansSerif" font-size="12">0</text><text x="296.008" y="679.904" font-family="SansSerif" font-size="12">15</text><text x="324.008" y="669.904" font-family="SansSerif" font-size="12">A</text><path fill="none" stroke="#000" stroke-linecap="square" d="m314.008 678.904 5-5v-7l3-3-3-3v-7l-5-5M334.008 663.904h40"/><text x="350.008" y="659.904" font-family="SansSerif" font-size="12">0</text><text x="334.008" y="676.904" font-family="SansSerif" font-size="12">65535</text><path fill="none" stroke="#000" stroke-linecap="square" stroke-width="2" d="M294.008 693.904h199M494.008 693.904v19"/><text x="485.008" y="708.904" font-family="SansSerif" font-size="9">A</text><path fill="none" stroke="#000" stroke-linecap="square" stroke-width="2" d="M294.008 694.904v19h199M295.008 713.904h199v19"/><text x="485.008" y="728.904" font-family="SansSerif" font-size="9">A</text><path fill="none" stroke="#000" stroke-linecap="square" stroke-width="2" d="M294.008 714.904v19h199M295.008 733.904h199v19"/><text x="485.008" y="748.904" font-family="SansSerif" font-size="9">A</text><path fill="none" stroke="#000" stroke-linecap="square" stroke-width="2" d="M294.008 734.904v19h199M295.008 753.904h199v19"/><text x="485.008" y="768.904" font-family="SansSerif" font-size="9">A</text><path fill="none" stroke="#000" stroke-linecap="square" stroke-width="2" d="M294.008 754.904v19h199M295.008 773.904h199v19"/><text x="485.008" y="788.904" font-family="SansSerif" font-size="9">A</text><path fill="none" stroke="#000" stroke-linecap="square" stroke-width="2" d="M294.008 774.904v19h199M295.008 793.904h199v19"/><text x="485.008" y="808.904" font-family="SansSerif" font-size="9">A</text><path fill="none" stroke="#000" stroke-linecap="square" stroke-width="2" d="M294.008 794.904v19h199M295.008 813.904h199v19"/><text x="485.008" y="828.904" font-family="SansSerif" font-size="9">A</text><path fill="none" stroke="#000" stroke-linecap="square" stroke-width="2" d="M294.008 814.904v19h199M295.008 833.904h199v19"/><text x="485.008" y="848.904" font-family="SansSerif" font-size="9">A</text><path fill="none" stroke="#000" stroke-linecap="square" stroke-width="2" d="M294.008 834.904v19h199M295.008 853.904h199v19"/><text x="485.008" y="868.904" font-family="SansSerif" font-size="9">A</text><path fill="none" stroke="#000" stroke-linecap="square" stroke-width="2" d="M294.008 854.904v19h199M295.008 873.904h199v19"/><text x="485.008" y="888.904" font-family="SansSerif" font-size="9">A</text><path fill="none" stroke="#000" stroke-linecap="square" stroke-width="2" d="M294.008 874.904v19h199M295.008 893.904h199v19"/><text x="485.008" y="908.904" font-family="SansSerif" font-size="9">A</text><path fill="none" stroke="#000" stroke-linecap="square" stroke-width="2" d="M294.008 894.904v19h199M295.008 913.904h199v19"/><text x="485.008" y="928.904" font-family="SansSerif" font-size="9">A</text><path fill="none" stroke="#000" stroke-linecap="square" stroke-width="2" d="M294.008 914.904v19h199M295.008 933.904h199v19"/><text x="485.008" y="948.904" font-family="SansSerif" font-size="9">A</text><path fill="none" stroke="#000" stroke-linecap="square" stroke-width="2" d="M294.008 934.904v19h199M295.008 953.904h199v19"/><text x="485.008" y="968.904" font-family="SansSerif" font-size="9">A</text><path fill="none" stroke="#000" stroke-linecap="square" stroke-width="2" d="M294.008 954.904v19h199M295.008 973.904h199v19"/><text x="485.008" y="988.904" font-family="SansSerif" font-size="9">A</text><path fill="none" stroke="#000" stroke-linecap="square" stroke-width="2" d="M294.008 974.904v19h199M295.008 993.904h199v19M494.008 1013.904h-199M294.008 1013.904v-19"/><text x="485.008" y="1008.904" font-family="SansSerif" font-size="9">A</text><path fill="none" stroke="#000" stroke-linecap="square" stroke-width="4" d="M504.008 603.904h70v90h-60l-5 5v300"/><path fill="none" stroke="#000" stroke-linecap="square" stroke-width="2" d="m509.008 698.904-5 5h-10"/><text x="497.008" y="700.904" font-family="SansSerif" font-size="7">0</text><path fill="none" stroke="#000" stroke-linecap="square" stroke-width="2" d="m509.008 718.904-5 5h-10"/><text x="497.008" y="720.904" font-family="SansSerif" font-size="7">1</text><path fill="none" stroke="#000" stroke-linecap="square" stroke-width="2" d="m509.008 738.904-5 5h-10"/><text x="497.008" y="740.904" font-family="SansSerif" font-size="7">2</text><path fill="none" stroke="#000" stroke-linecap="square" stroke-width="2" d="m509.008 758.904-5 5h-10"/><text x="497.008" y="760.904" font-family="SansSerif" font-size="7">3</text><path fill="none" stroke="#000" stroke-linecap="square" stroke-width="2" d="m509.008 778.904-5 5h-10"/><text x="497.008" y="780.904" font-family="SansSerif" font-size="7">4</text><path fill="none" stroke="#000" stroke-linecap="square" stroke-width="2" d="m509.008 798.904-5 5h-10"/><text x="497.008" y="800.904" font-family="SansSerif" font-size="7">5</text><path fill="none" stroke="#000" stroke-linecap="square" stroke-width="2" d="m509.008 818.904-5 5h-10"/><text x="497.008" y="820.904" font-family="SansSerif" font-size="7">6</text><path fill="none" stroke="#000" stroke-linecap="square" stroke-width="2" d="m509.008 838.904-5 5h-10"/><text x="497.008" y="840.904" font-family="SansSerif" font-size="7">7</text><path fill="none" stroke="#000" stroke-linecap="square" stroke-width="2" d="m509.008 858.904-5 5h-10"/><text x="497.008" y="860.904" font-family="SansSerif" font-size="7">8</text><path fill="none" stroke="#000" stroke-linecap="square" stroke-width="2" d="m509.008 878.904-5 5h-10"/><text x="497.008" y="880.904" font-family="SansSerif" font-size="7">9</text><path fill="none" stroke="#000" stroke-linecap="square" stroke-width="2" d="m509.008 898.904-5 5h-10"/><text x="497.008" y="900.904" font-family="SansSerif" font-size="7">10</text><path fill="none" stroke="#000" stroke-linecap="square" stroke-width="2" d="m509.008 918.904-5 5h-10"/><text x="497.008" y="920.904" font-family="SansSerif" font-size="7">11</text><path fill="none" stroke="#000" stroke-linecap="square" stroke-width="2" d="m509.008 938.904-5 5h-10"/><text x="497.008" y="940.904" font-family="SansSerif" font-size="7">12</text><path fill="none" stroke="#000" stroke-linecap="square" stroke-width="2" d="m509.008 958.904-5 5h-10"/><text x="497.008" y="960.904" font-family="SansSerif" font-size="7">13</text><path fill="none" stroke="#000" stroke-linecap="square" stroke-width="2" d="m509.008 978.904-5 5h-10"/><text x="497.008" y="980.904" font-family="SansSerif" font-size="7">14</text><path fill="none" stroke="#000" stroke-linecap="square" stroke-width="2" d="m509.008 998.904-5 5h-10"/><text x="497.008" y="1000.904" font-family="SansSerif" font-size="7">15</text><circle cx="514.008" cy="693.904" r="2"/><path fill="none" stroke="#000" stroke-linecap="square" stroke-width="4" d="M224.008 663.904v-20h50l5 5v20"/><path fill="none" stroke="#000" stroke-linecap="square" stroke-width="2" d="m279.008 648.904 5 5h10M289.008 656.904v2M289.008 662.904v2M289.008 668.904v2M279.008 668.904l5 5h10"/><circle cx="274.008" cy="643.904" r="2"/><text x="352.008" y="645.904" font-family="SansSerif" font-size="12">ROM 64K x 16</text></svg>
